<svg width="30" height="30" viewBox="0 0 30 30" fill="none" xmlns="http://www.w3.org/2000/svg">
<path fill-rule="evenodd" clip-rule="evenodd" d="M21.0174 1.30456C16.9401 0.624228 12.7787 0.624228 8.70167 1.30456C6.81531 1.61609 5.07399 2.51168 3.72231 3.86522C2.37033 5.21875 1.47631 6.9628 1.16519 8.85175C0.48579 12.9344 0.48579 17.1019 1.16519 21.1845C1.47629 23.0735 2.37033 24.8172 3.72231 26.1711C5.07399 27.5246 6.81531 28.4202 8.70167 28.7314C10.738 29.0587 12.7975 29.2176 14.8596 29.2064C16.9228 29.2058 18.9823 29.0352 21.0174 28.6961C22.9038 28.3846 24.6451 27.489 25.9968 26.1354C27.3488 24.7819 28.2428 23.0379 28.5539 21.1489C28.8857 19.1165 29.0503 17.0601 29.0459 15.0004C29.0453 12.9344 28.8749 10.872 28.5363 8.83405C28.223 6.95096 27.33 5.21278 25.9816 3.86297C24.6337 2.51284 22.8979 1.61855 21.0174 1.30478L21.0174 1.30456ZM14.0699 13.2243H17.0758V13.2244C17.9658 13.2263 18.7936 13.6811 19.2733 14.4318C19.7529 15.1824 19.8188 16.1256 19.4477 16.9354V16.9357L17.3374 21.5126C17.1507 21.9558 16.7922 22.3044 16.3441 22.4782C15.896 22.6519 15.3969 22.6361 14.9606 22.4348C14.5242 22.2332 14.1884 21.8629 14.0297 21.4086C13.8711 20.9547 13.9033 20.4555 14.1188 20.0253L15.6174 16.7757H12.6116C11.7203 16.7745 10.8909 16.3193 10.411 15.5674C9.93106 14.8152 9.86644 13.8704 10.2397 13.06L12.3499 8.48745C12.5367 8.04428 12.8951 7.6956 13.3432 7.52188C13.791 7.34816 14.2904 7.36395 14.7268 7.56523C15.1631 7.76683 15.499 8.13716 15.6576 8.59144C15.8163 9.04537 15.7841 9.54458 15.5686 9.97471L14.0699 13.2243Z" fill="#2F2768"/>
</svg>
