<svg width="12" height="13" viewBox="0 0 12 13" fill="none" xmlns="http://www.w3.org/2000/svg">
<title>Play icon</title>
<g clip-path="url(#clip0_86_339)">
<path d="M10.5 1.54532H1.5C1.10218 1.54532 0.720644 1.70335 0.43934 1.98466C0.158035 2.26596 0 2.64749 0 3.04532L0 10.0453C0 10.4431 0.158035 10.8247 0.43934 11.106C0.720644 11.3873 1.10218 11.5453 1.5 11.5453H10.5C10.8978 11.5453 11.2794 11.3873 11.5607 11.106C11.842 10.8247 12 10.4431 12 10.0453V3.04532C12 2.64749 11.842 2.26596 11.5607 1.98466C11.2794 1.70335 10.8978 1.54532 10.5 1.54532ZM4 9.54532V3.54532L9 6.54532L4 9.54532Z" fill="#2F2768"/>
</g>
<defs>
<clipPath id="clip0_86_339">
<rect width="12" height="12" fill="white" transform="translate(0 0.545319)"/>
</clipPath>
</defs>
</svg>
