<svg  viewBox="0 0 36 54" fill="none" xmlns="http://www.w3.org/2000/svg">
  <path d="M25.826 26.787C24.0184 26.787 23.2325 27.4801 23.2233 28.4228C23.1724 29.4532 24.0832 30.0492 26.1219 30.479L27.8878 30.8579C32.6356 31.8744 34.5911 34.1755 34.6096 37.4516C34.5865 41.6934 31.3227 44.0453 25.8722 44.0453C20.2646 44.0453 16.6078 41.6287 16.5894 36.2363H22.1369C22.2294 38.2094 23.5561 39.2583 25.7937 39.2583C27.6613 39.2583 28.6275 38.5143 28.6506 37.4516C28.6275 36.4766 27.8093 35.8759 25.4146 35.3538L23.2695 34.8917C19.4556 34.0739 17.1256 32.2025 17.1349 28.8432C17.1025 24.7493 20.7177 22 25.8306 22C31.0407 22 34.2953 24.7909 34.3184 29.0142H28.7292C28.609 27.6188 27.7122 26.787 25.826 26.787Z" fill="black"/>
</svg>
