<svg width="138" height="67" viewBox="0 0 138 67" fill="none" xmlns="http://www.w3.org/2000/svg">
<title>Seoder</title>
<path d="M25.826 26.787C24.0184 26.787 23.2325 27.4801 23.2233 28.4228C23.1724 29.4532 24.0832 30.0492 26.1219 30.479L27.8878 30.8579C32.6356 31.8744 34.5911 34.1755 34.6096 37.4516C34.5865 41.6934 31.3227 44.0453 25.8722 44.0453C20.2646 44.0453 16.6078 41.6287 16.5894 36.2363H22.1369C22.2294 38.2094 23.5561 39.2583 25.7937 39.2583C27.6613 39.2583 28.6275 38.5143 28.6506 37.4516C28.6275 36.4766 27.8093 35.8759 25.4146 35.3538L23.2695 34.8917C19.4556 34.0739 17.1256 32.2025 17.1349 28.8432C17.1025 24.7493 20.7177 22 25.8306 22C31.0407 22 34.2953 24.7909 34.3184 29.0142H28.7292C28.609 27.6188 27.7122 26.787 25.826 26.787Z" fill="black"/>
<path d="M36.6096 35.7327C36.6096 30.7331 39.8041 27.4154 44.8015 27.4154C49.6741 27.4154 52.8269 30.5529 52.8269 35.6865V37.0311H42.3236V37.2806C42.3236 38.8332 43.3314 39.9698 45.0557 39.9698C46.2438 39.9698 47.1962 39.457 47.5336 38.5421H52.8269C52.2814 41.9013 49.4013 44.0453 44.9263 44.0453C39.7578 44.0499 36.6096 40.9494 36.6096 35.7327ZM47.492 33.8428C47.4597 32.4566 46.3687 31.4909 44.9309 31.4909C43.5117 31.4909 42.3559 32.4474 42.3282 33.8428H47.492Z" fill="black"/>
<path d="M54.8269 35.7327C54.8269 30.7793 57.9381 27.4154 63.1898 27.4154C68.4415 27.4154 71.5481 30.7747 71.5481 35.7327C71.5481 40.6861 68.4369 44.0453 63.1898 44.0453C57.9381 44.0499 54.8269 40.6861 54.8269 35.7327ZM65.6261 35.6911C65.6261 33.159 64.7015 31.6156 63.2314 31.6156C61.6781 31.6156 60.7535 33.159 60.7535 35.6911C60.7535 38.2232 61.6781 39.7665 63.2314 39.7665C64.7015 39.7665 65.6261 38.2232 65.6261 35.6911Z" fill="black"/>
<path d="M73.5481 35.7743C73.5481 29.9383 76.6593 27.5032 79.8492 27.5032C82.2439 27.5032 83.7556 28.8894 84.3889 30.5252H84.4721V22.3373H90.2693V43.8374H84.5137V41.1897H84.3889C83.7186 42.8254 82.1607 44.0453 79.8954 44.0453C76.4467 44.0453 73.5481 41.3607 73.5481 35.7743ZM84.6016 35.7743C84.6016 33.3808 83.6354 31.953 82.0405 31.953C80.4455 31.953 79.521 33.3808 79.521 35.7743C79.521 38.1678 80.4455 39.5956 82.0405 39.5956C83.6354 39.5956 84.6016 38.1262 84.6016 35.7743Z" fill="black"/>
<path d="M92.2694 35.7327C92.2694 30.7331 95.4639 27.4154 100.461 27.4154C105.334 27.4154 108.487 30.5529 108.487 35.6865V37.0311H97.9834V37.2806C97.9834 38.8332 98.9912 39.9698 100.716 39.9698C101.904 39.9698 102.856 39.457 103.193 38.5421H108.487C107.941 41.9013 105.061 44.0453 100.586 44.0453C95.4223 44.0499 92.2694 40.9494 92.2694 35.7327ZM103.152 33.8428C103.119 32.4566 102.028 31.4909 100.591 31.4909C99.1715 31.4909 98.0157 32.4474 97.988 33.8428H103.152Z" fill="black"/>
<path d="M110.487 27.9237H116.117V30.9873H116.284C116.871 28.7185 118.216 27.7112 119.941 27.7112C120.445 27.7112 120.948 27.7944 121.411 27.933V32.8771C120.833 32.6784 119.867 32.5814 119.266 32.5814C117.555 32.5814 116.284 33.8012 116.284 35.6449V44.0453H110.487V27.9237Z" fill="black"/>
<style>
    @media (prefers-color-scheme:dark){:root{filter:invert(100%)}}
</style>
</svg>
