<svg width="12" height="13" viewBox="0 0 12 13" fill="none" xmlns="http://www.w3.org/2000/svg">
<title>Export icon</title>
<g clip-path="url(#clip0_86_180)">
<path d="M3.37498 4.29532H5.24998V8.04532C5.24998 8.24423 5.329 8.435 5.46965 8.57565C5.61031 8.7163 5.80107 8.79532 5.99998 8.79532C6.1989 8.79532 6.38966 8.7163 6.53031 8.57565C6.67097 8.435 6.74998 8.24423 6.74998 8.04532V4.29532H8.62498C8.69697 4.29525 8.76742 4.27445 8.82791 4.23542C8.8884 4.19639 8.93638 4.14078 8.96612 4.07522C8.99585 4.00965 9.00609 3.93692 8.9956 3.8657C8.98512 3.79448 8.95435 3.72778 8.90698 3.67357L6.28198 0.673568C6.24591 0.634867 6.20226 0.604005 6.15374 0.582903C6.10523 0.561801 6.05289 0.550911 5.99998 0.550911C5.94708 0.550911 5.89474 0.561801 5.84622 0.582903C5.79771 0.604005 5.75406 0.634867 5.71798 0.673568L3.09298 3.67357C3.04562 3.72778 3.01485 3.79448 3.00437 3.8657C2.99388 3.93692 3.00412 4.00965 3.03385 4.07522C3.06359 4.14078 3.11157 4.19639 3.17206 4.23542C3.23255 4.27445 3.303 4.29525 3.37498 4.29532Z" fill="#2F2768"/>
<path d="M10.5 5.79532H8.25V7.29532H10.5V11.0453H1.5V7.29532H3.75V5.79532H1.5C1.10218 5.79532 0.720644 5.95335 0.43934 6.23466C0.158035 6.51596 0 6.89749 0 7.29532L0 11.0453C0 11.4431 0.158035 11.8247 0.43934 12.106C0.720644 12.3873 1.10218 12.5453 1.5 12.5453H10.5C10.8978 12.5453 11.2794 12.3873 11.5607 12.106C11.842 11.8247 12 11.4431 12 11.0453V7.29532C12 6.89749 11.842 6.51596 11.5607 6.23466C11.2794 5.95335 10.8978 5.79532 10.5 5.79532Z" fill="#2F2768"/>
</g>
<defs>
<clipPath id="clip0_86_180">
<rect width="12" height="12" fill="white" transform="translate(0 0.545319)"/>
</clipPath>
</defs>
</svg>
