<svg width="25" height="25" viewBox="0 0 25 25" fill="none" xmlns="http://www.w3.org/2000/svg">
<title>Settings icon</title>
<g clip-path="url(#clip0_86_14)">
<path d="M23.8214 12.0226C23.8214 10.9176 22.9264 10.0226 21.8214 10.0226H20.5594C20.3704 9.29064 20.0823 8.60064 19.7073 7.96464L20.5993 7.07264C21.3803 6.29164 21.3803 5.02564 20.5993 4.24464C19.8183 3.46364 18.5524 3.46364 17.7714 4.24464L16.8794 5.13664C16.2434 4.76164 15.5534 4.47364 14.8214 4.28464V3.02264C14.8214 1.91864 13.9264 1.02264 12.8214 1.02264C11.7164 1.02264 10.8214 1.91764 10.8214 3.02264V4.28464C10.0894 4.47364 9.39935 4.76164 8.76335 5.13664L7.87135 4.24464C7.09035 3.46364 5.82435 3.46364 5.04335 4.24464C4.26235 5.02564 4.26235 6.29164 5.04335 7.07264L5.93535 7.96464C5.56035 8.60064 5.27235 9.29064 5.08335 10.0226H3.82135C2.71735 10.0226 1.82135 10.9176 1.82135 12.0226C1.82135 13.1276 2.71635 14.0226 3.82135 14.0226H5.08335C5.27235 14.7546 5.56035 15.4446 5.93535 16.0806L5.04335 16.9726C4.26235 17.7536 4.26235 19.0196 5.04335 19.8006C5.82435 20.5816 7.09035 20.5816 7.87135 19.8006L8.76335 18.9086C9.39835 19.2836 10.0894 19.5716 10.8214 19.7606V21.0226C10.8214 22.1266 11.7164 23.0226 12.8214 23.0226C13.9264 23.0226 14.8214 22.1276 14.8214 21.0226V19.7606C15.5534 19.5716 16.2434 19.2836 16.8794 18.9086L17.7714 19.8006C18.5524 20.5816 19.8183 20.5816 20.5993 19.8006C21.3803 19.0196 21.3803 17.7536 20.5993 16.9726L19.7073 16.0806C20.0823 15.4456 20.3704 14.7546 20.5594 14.0226H21.8214C22.9254 14.0226 23.8214 13.1276 23.8214 12.0226Z" stroke="#2F2768" stroke-width="2" stroke-miterlimit="10" stroke-linecap="square"/>
<path d="M12.8214 15.0226C14.4782 15.0226 15.8214 13.6795 15.8214 12.0226C15.8214 10.3658 14.4782 9.02264 12.8214 9.02264C11.1645 9.02264 9.82135 10.3658 9.82135 12.0226C9.82135 13.6795 11.1645 15.0226 12.8214 15.0226Z" stroke="#2F2768" stroke-width="2" stroke-miterlimit="10" stroke-linecap="square"/>
</g>
<defs>
<clipPath id="clip0_86_14">
<rect width="24" height="24" fill="white" transform="translate(0.82135 0.022644)"/>
</clipPath>
</defs>
</svg>
