<svg width="60" height="60" viewBox="0 0 60 60" fill="none" xmlns="http://www.w3.org/2000/svg">
<title>Computer icon</title>
<circle cx="30" cy="30" r="30" fill="#2F2768"/>
<path d="M21 31V23C21 22.4696 21.2107 21.9609 21.5858 21.5858C21.9609 21.2107 22.4696 21 23 21H37C37.5304 21 38.0391 21.2107 38.4142 21.5858C38.7893 21.9609 39 22.4696 39 23V31" stroke="white" stroke-width="2" stroke-miterlimit="10" stroke-linecap="square"/>
<path d="M30 26C30.5523 26 31 25.5523 31 25C31 24.4477 30.5523 24 30 24C29.4477 24 29 24.4477 29 25C29 25.5523 29.4477 26 30 26Z" fill="white"/>
<path d="M41 35C41 36.0609 40.5786 37.0783 39.8284 37.8284C39.0783 38.5786 38.0609 39 37 39H23C21.9391 39 20.9217 38.5786 20.1716 37.8284C19.4214 37.0783 19 36.0609 19 35H41Z" stroke="white" stroke-width="2" stroke-miterlimit="10" stroke-linecap="square"/>
</svg>
